<svg width="51" height="14" viewBox="0 0 51 14" fill="none" xmlns="http://www.w3.org/2000/svg">
<path d="M23.456 1.33028C25.5801 -0.0663733 28.3538 0.0271182 30.379 1.56363L33.5 3.93151L36.9277 6.74877C36.9758 6.78832 37.0275 6.82328 37.0821 6.85321L41.5 9.27397L46.4262 11.2984C46.4753 11.3186 46.526 11.3349 46.5777 11.347L50 12.1507C51.1383 12.3208 51.0135 14 49.8626 14H1.14938C0.00465012 14 -0.12989 12.3344 1 12.1507L5.88752 11.3473C5.96227 11.335 6.03537 11.3142 6.10543 11.2854L11 9.27397L15.5 6.80822L19.5 3.93151L23.456 1.33028Z" fill="#5D96E8"/>
</svg>
