<svg width="120" height="69" viewBox="0 0 180 90" fill="none" xmlns="http://www.w3.org/2000/svg">
<path d="M37.7915 7.96289L104.978 46.7529L67.1862 68.5719L-3.91145e-05 29.7818L37.7915 7.96289Z" fill="#C3D3D9"/>
<rect width="9.85055" height="8.59999" transform="matrix(0.866025 -0.5 2.20305e-08 1 34.4058 26.7324)" fill="#D9D9D9"/>
<rect width="17.886" height="8.60015" transform="matrix(0.866025 0.5 -2.20305e-08 1 18.9619 17.9009)" fill="#DFE5E8"/>
<rect width="7.20395" height="21.9939" transform="matrix(0.866025 0.5 -2.20305e-08 1 42.9165 6.00488)" fill="#DFE5E8"/>
<rect width="9.75739" height="17.8859" transform="matrix(0.866025 -0.5 0.866025 0.5 18.9878 17.8677)" fill="#F1F1F6"/>
<rect width="0.600329" height="7.50395" transform="matrix(0.866025 0.5 -2.20305e-08 1 35.3877 29.3345)" fill="#DFE6EB"/>
<path d="M35.8789 29.6616L36.3988 29.9618L36.3988 36.7986L35.8789 37.0988L35.8789 29.6616Z" fill="#D4D4D4"/>
<rect width="0.600329" height="7.50395" transform="matrix(0.866025 0.5 -2.20305e-08 1 38.0625 30.8896)" fill="#DFE6EB"/>
<path d="M38.5537 31.2168L39.0736 31.517L39.0736 38.3538L38.5537 38.654L38.5537 31.2168Z" fill="#D4D4D4"/>
<rect width="0.600329" height="7.50395" transform="matrix(0.866025 0.5 -2.20305e-08 1 40.7363 32.4727)" fill="#DFE6EB"/>
<path d="M41.2275 32.7998L41.7474 33.1L41.7474 39.9368L41.2275 40.237L41.2275 32.7998Z" fill="#D4D4D4"/>
<rect width="0.600329" height="7.50395" transform="matrix(0.866025 0.5 -2.20305e-08 1 43.4106 34.0552)" fill="#DFE6EB"/>
<path d="M43.9019 34.3823L44.4218 34.6825L44.4218 41.5193L43.9019 41.8195L43.9019 34.3823Z" fill="#D4D4D4"/>
<rect width="0.600329" height="7.50395" transform="matrix(0.866025 0.5 -2.20305e-08 1 46.085 35.856)" fill="#DFE6EB"/>
<path d="M46.5762 36.1831L47.0961 36.4833L47.0961 43.3201L46.5762 43.6203L46.5762 36.1831Z" fill="#D4D4D4"/>
<rect width="0.600329" height="7.50395" transform="matrix(0.866025 0.5 -2.20305e-08 1 48.7588 37.7661)" fill="#DFE6EB"/>
<path d="M49.25 38.0933L49.7699 38.3934L49.7699 45.2303L49.25 45.5305L49.25 38.0933Z" fill="#D4D4D4"/>
<rect width="0.600329" height="7.50395" transform="matrix(0.866025 0.5 -2.20305e-08 1 51.4331 39.7856)" fill="#DFE6EB"/>
<path d="M51.9243 40.1128L52.4442 40.413L52.4442 47.2498L51.9243 47.55L51.9243 40.1128Z" fill="#D4D4D4"/>
<path d="M33.1073 35.4758L36.7699 33.3612L73.958 54.8318L65.2141 60.7699L58.6105 62.6801L58.9981 58.684L57.9327 55.4377L56.1981 51.7712L52.3072 47.5578L47.9653 44.4963L43.6229 41.7037L33.1073 35.4758Z" fill="#F1F1F6"/>
<rect width="19.6696" height="17.8859" transform="matrix(0.866025 -0.5 0.866025 0.5 22.6729 15.7402)" fill="#F1F1F6"/>
<rect width="12.1703" height="7.20395" transform="matrix(0.866025 -0.5 0.866025 0.5 42.8657 6.08496)" fill="#F1F1F6"/>
<rect width="12.1703" height="21.9939" transform="matrix(0.866025 -0.5 2.20305e-08 1 49.1387 9.57959)" fill="#D9D9D9"/>
<rect width="16.3847" height="5.13009" transform="matrix(0.866025 -0.5 2.20305e-08 1 73.6465 43.3911)" fill="#D9D9D9"/>
<rect width="16.33" height="12.9947" transform="matrix(0.866025 -0.5 0.866025 0.5 62.5371 36.8174)" fill="#F1F1F6"/>
<rect width="12.8557" height="5.13009" transform="matrix(0.866025 0.5 -2.20305e-08 1 62.5132 36.7983)" fill="#DFE5E8"/>
<rect width="7.017" height="8.51987" transform="matrix(0.866025 -0.5 2.20305e-08 1 80.6313 31.8877)" fill="#D9D9D9"/>
<rect width="7.01676" height="32.0358" transform="matrix(0.866025 -0.5 0.866025 0.5 52.9072 15.7129)" fill="#F1F1F6"/>
<rect width="32.0358" height="8.60015" transform="matrix(0.866025 0.5 -2.20305e-08 1 52.9072 15.5537)" fill="#DFE5E8"/>
<rect width="14.5002" height="8.51987" transform="matrix(0.866025 -0.5 2.20305e-08 1 64.8047 52.2749)" fill="#D9D9D9"/>
<path d="M36.8623 26.522L65.0778 42.8122L65.0778 60.7969L62.6454 56.4602L60.0986 53.1208L57.2942 49.2773L53.9747 46.3305L50.1688 43.3555L45.1896 39.9778L36.8623 34.634L36.8623 26.522Z" fill="#DFE5E8"/>
<path d="M36.8456 26.5707L40.897 24.2316L77.0989 45.1328L60.844 55.2438L62.3037 48.6979L61.6138 45.2995L59.0658 41.9468L55.4217 38.3984L51.2587 35.3813L47.0643 32.6438L36.8456 26.5707Z" fill="#F1F1F6"/>
<rect width="0.600329" height="7.50395" transform="matrix(0.866025 0.5 -2.20305e-08 1 54.1084 42.4048)" fill="#DFE6EB"/>
<path d="M54.5996 42.7319L55.1195 43.0321L55.1195 49.869L54.5996 50.1691L54.5996 42.7319Z" fill="#D4D4D4"/>
<path d="M57.0552 56.2674L57.5751 56.2674L57.5751 64.0716L57.0552 63.7714L57.0552 56.2674Z" fill="#DFE6EB"/>
<path d="M57.5464 56.2675L58.0663 55.9127L58.0663 63.7318L57.5464 64.0319L57.5464 56.2675Z" fill="#D4D4D4"/>
<rect width="0.600329" height="7.50395" transform="matrix(0.866025 0.5 -2.20305e-08 1 56.7822 45.8433)" fill="#DFE6EB"/>
<path d="M57.2734 46.1704L57.5463 46.498L57.7933 47.9716L57.7933 52.6378L57.2734 53.6076L57.2734 46.1704Z" fill="#D4D4D4"/>
<rect width="0.600329" height="7.50395" transform="matrix(0.866025 0.5 -2.20305e-08 1 58.8564 51.9009)" fill="#DFE6EB"/>
<path d="M59.3477 52.228L59.6205 52.5556L59.8676 54.0292L59.8676 59.6652L59.3477 59.6652L59.3477 52.228Z" fill="#D4D4D4"/>
<rect width="18.8484" height="1.26908" transform="matrix(0.866025 -0.5 2.20305e-08 1 56.7822 56.0859)" fill="#D9D9D9"/>
<path d="M32.7763 27.7714L36.8276 25.4323L73.0295 46.3335L56.7747 56.4445L58.2343 49.8986L57.5445 46.5002L54.9964 43.1475L51.3524 39.5991L47.1894 36.582L42.9949 33.8445L32.7763 27.7714Z" fill="#F1F1F6"/>
</svg>
