<svg width="115" height="72" viewBox="0 0 160 72" fill="none" xmlns="http://www.w3.org/2000/svg">
<rect width="76.8613" height="55.3806" transform="matrix(0.871257 -0.490827 0.871257 0.490827 0 44.4043)" fill="#C3D3D9"/>
<rect width="9.72059" height="15.6097" transform="matrix(0.866025 0.5 -2.20305e-08 1 79.002 8.42529)" fill="#DFE5E8"/>
<rect width="1.89521" height="15.5811" transform="matrix(0.866025 -0.5 2.20305e-08 1 87.4199 13.3408)" fill="#D4D4D4"/>
<path d="M83.1316 2.93452L87.5333 13.2895L78.7298 8.2068L83.1316 2.93452Z" fill="#DFE5E8"/>
<path d="M82.9822 3.0174L84.8783 3.02104L89.0874 12.4154L87.4726 13.3155L82.9822 3.0174Z" fill="#F3F1F6"/>
<path d="M47.0225 20.7017L51.33 16.1004L55.8643 16.5984L55.8643 29.7151L47.0225 34.82V20.7017Z" fill="#DFE5E8"/>
<path d="M27.5391 32.9502L31.8466 28.349L36.3809 28.847L36.3809 41.9636L27.5391 47.0685L27.5391 32.9502Z" fill="#DFE5E8"/>
<path d="M68.0947 10.0781L72.4023 5.4769L76.9366 5.9749L76.9366 19.0916L68.0947 24.1964V10.0781Z" fill="#DFE5E8"/>
<rect width="0.847122" height="7.94177" transform="matrix(0.866025 0.5 -2.20305e-08 1 45.8047 16.5811)" fill="#DFE6EB"/>
<rect width="1.03931" height="7.94177" transform="matrix(0.866025 -0.5 2.20305e-08 1 46.5459 17.0093)" fill="#D4D4D4"/>
<rect width="0.847122" height="0.981322" transform="matrix(0.866025 0.5 -0.866025 0.5 46.6797 16.0952)" fill="#F6F4F9"/>
<rect width="0.847122" height="7.94177" transform="matrix(0.866025 0.5 -2.20305e-08 1 55.3877 12.0801)" fill="#DFE6EB"/>
<rect width="1.03931" height="7.94177" transform="matrix(0.866025 -0.5 2.20305e-08 1 56.1289 12.5088)" fill="#D4D4D4"/>
<rect width="0.847122" height="0.981322" transform="matrix(0.866025 0.5 -0.866025 0.5 56.2627 11.5947)" fill="#F6F4F9"/>
<rect width="57.5899" height="14.3677" transform="matrix(0.866025 -0.5 2.20305e-08 1 39.6631 42.2432)" fill="#D4D4D4"/>
<rect width="14.3669" height="14.9311" transform="matrix(0.866025 0.5 -2.20305e-08 1 27.5391 34.52)" fill="#DFE5E8"/>
<rect width="56.9507" height="14.2657" transform="matrix(0.866025 -0.5 0.866025 0.5 27.5449 34.8442)" fill="#F3F1F6"/>
<rect width="9.72059" height="15.6097" transform="matrix(0.866025 0.5 -2.20305e-08 1 28.1211 35.48)" fill="#DFE5E8"/>
<rect width="1.89521" height="15.5811" transform="matrix(0.866025 -0.5 2.20305e-08 1 36.5391 40.396)" fill="#D4D4D4"/>
<path d="M72.4629 5.50635L76.9632 5.95638L89.6436 13.3422L84.0579 12.4686L72.4629 5.50635Z" fill="#F3F1F6"/>
<path d="M52.4756 16.2012L56.9759 16.6512L69.6563 24.0371L64.0706 23.1635L52.4756 16.2012Z" fill="#F3F1F6"/>
<rect width="14.4892" height="1.59204" transform="matrix(0.866025 0.5 -2.20305e-08 1 68.0947 9.95361)" fill="#DFE5E8"/>
<rect width="14.4892" height="1.59204" transform="matrix(0.866025 0.5 -2.20305e-08 1 47.4463 21.6548)" fill="#DFE5E8"/>
<rect width="14.4892" height="1.59204" transform="matrix(0.866025 0.5 -2.20305e-08 1 27.75 32.9316)" fill="#DFE5E8"/>
<path d="M68.1478 10.4299L72.5157 5.47989L84.7461 13.1834L80.987 17.3396L68.1478 10.4299Z" fill="#F3F1F6"/>
<path d="M47.5362 21.4926L52.4684 16.0953L65.2812 24.2015L61.0413 28.7347L47.5362 21.4926Z" fill="#F3F1F6"/>
<path d="M27.7884 34.1228L32.1564 29.1728L44.3867 36.8763L40.6276 41.0325L27.7884 34.1228Z" fill="#F3F1F6"/>
<rect width="9.78172" height="1.50825" transform="matrix(0.866025 -0.5 2.20305e-08 1 80.5898 17.2827)" fill="#D4D4D4"/>
<rect width="9.41491" height="2.07511" transform="matrix(0.866025 -0.5 2.20305e-08 1 59.5176 28.981)" fill="#D4D4D4"/>
<path d="M84.5868 11.3824L88.5988 12.6796L80.5748 17.3123L84.5868 11.3824Z" fill="#D4D4D4"/>
<path d="M63.4618 23.1114L67.4738 24.4086L59.4498 29.0413L63.4618 23.1114Z" fill="#D4D4D4"/>
<path d="M32.2507 29.9897L36.6525 40.3447L27.8489 35.262L32.2507 29.9897Z" fill="#DFE5E8"/>
<path d="M32.5164 30.0755L34.4125 30.0791L38.6216 39.4735L37.0068 40.3736L32.5164 30.0755Z" fill="#F3F1F6"/>
<path d="M32.1445 29.3315L36.6449 29.7816L49.3252 37.1674L43.7395 36.2938L32.1445 29.3315Z" fill="#F3F1F6"/>
<path d="M44.6132 34.4947L48.6252 35.7919L40.6011 40.4246L44.6132 34.4947Z" fill="#D4D4D4"/>
<rect width="9.78172" height="1.50825" transform="matrix(0.866025 -0.5 2.20305e-08 1 40.2988 40.6069)" fill="#D4D4D4"/>
</svg>
