<svg width="80" height="62" viewBox="0 0 108 62" fill="none" xmlns="http://www.w3.org/2000/svg">
<rect width="55.8672" height="33.6391" transform="matrix(0.871257 -0.490827 0.871257 0.490827 0 44.8877)" fill="#C3D3D9"/>
<rect width="17.3108" height="30.19" transform="matrix(0.866025 0.5 -0.866025 0.5 46.3799 12.1543)" fill="#F3F1F6"/>
<path d="M20.3701 27.6281L41.7397 15.2683L41.7397 16.0794L20.9241 27.9743L20.3701 27.6281Z" fill="#E1E5E9"/>
<rect width="24.8996" height="0.776071" transform="matrix(0.869277 -0.494326 0.869277 0.494326 19.6777 27.2651)" fill="white"/>
<rect width="17.3108" height="15.1286" transform="matrix(0.866025 0.5 -2.20305e-08 1 20.2324 27.2817)" fill="#DFE5E8"/>
<rect width="30.19" height="15.3144" transform="matrix(0.866025 -0.5 2.20305e-08 1 35.1885 35.8667)" fill="#D4D4D4"/>
<rect width="11.7713" height="0.796345" transform="matrix(0.866025 -0.5 2.20305e-08 1 17.6611 49.6475)" fill="white"/>
<rect width="11.7713" height="0.796345" transform="matrix(0.866025 -0.5 2.20305e-08 1 17.6611 49.6475)" fill="white"/>
<rect width="11.7713" height="0.796345" transform="matrix(0.866025 -0.5 2.20305e-08 1 19.0459 51.5859)" fill="white"/>
<rect width="11.7713" height="0.796345" transform="matrix(0.866025 -0.5 2.20305e-08 1 19.7383 52.6938)" fill="white"/>
<rect width="11.7713" height="0.796345" transform="matrix(0.866025 -0.5 2.20305e-08 1 24.7236 56.4331)" fill="white"/>
<rect width="11.7713" height="0.796345" transform="matrix(0.866025 -0.5 2.20305e-08 1 20.4307 53.8018)" fill="white"/>
<rect width="11.7713" height="0.796345" transform="matrix(0.866025 -0.5 2.20305e-08 1 18.3535 50.6167)" fill="white"/>
<rect width="10.2638" height="14.0452" transform="matrix(0.866025 0.5 -0.866025 0.5 44.7285 4.32178)" fill="#F3F1F6"/>
<rect width="7.02261" height="8.37311" transform="matrix(0.866025 0.5 -0.866025 0.5 42.5176 0)" fill="#F3F1F6"/>
<rect width="10.2638" height="2.701" transform="matrix(0.866025 0.5 -2.20305e-08 1 32.5654 11.0742)" fill="#DFE5E8"/>
<rect width="7.02261" height="2.701" transform="matrix(0.866025 0.5 -2.20305e-08 1 35.2666 4.32178)" fill="#DFE5E8"/>
<path d="M35.2666 7.02246L41.3484 10.5338L38.3075 8.77811L35.2666 9.72346L35.2666 7.02246Z" fill="#DFE5E8"/>
<path d="M41.4785 16.4761L53.642 9.45347L53.642 12.1545L41.4785 19.1771L41.4785 16.4761Z" fill="#D4D4D4"/>
<path d="M41.4785 7.69775L48.7298 3.5112L48.7298 6.2122L41.4785 10.3988L41.4785 7.69775Z" fill="#D4D4D4"/>
<path d="M50.1221 14.3154L53.6424 12.1546L53.6424 16.2061L52.2829 15.6405L50.1221 14.3154Z" fill="#D4D4D4"/>
<path d="M32.5654 13.7753L38.7777 16.4763L32.5654 19.8526L32.5654 13.7753Z" fill="#DFE5E8"/>
<rect width="17.6291" height="0.792258" transform="matrix(0.866025 0.5 -0.866025 0.5 20.2266 26.8662)" fill="white"/>
<rect width="17.9099" height="0.792258" transform="matrix(0.866025 0.5 -2.20305e-08 1 19.54 27.1304)" fill="#DFE5E8"/>
<rect width="11.2453" height="0.792258" transform="matrix(0.866025 0.5 -0.866025 0.5 32.5518 10.9404)" fill="white"/>
<rect width="11.3536" height="0.792258" transform="matrix(0.866025 0.5 -2.20305e-08 1 31.8652 11.2046)" fill="#DFE5E8"/>
<rect width="8.12855" height="0.792258" transform="matrix(0.866025 0.5 -0.866025 0.5 35.46 3.87744)" fill="white"/>
<rect width="8.15541" height="0.792258" transform="matrix(0.866025 0.5 -2.20305e-08 1 34.7734 4.1416)" fill="#DFE5E8"/>
<rect width="30.815" height="0.817822" transform="matrix(0.869277 -0.494326 2.2367e-08 1 35.1299 36.042)" fill="#D4D4D4"/>
<rect width="30.7164" height="0.751044" transform="matrix(0.869277 -0.494326 0.869277 0.494326 34.6348 35.7905)" fill="white"/>
<rect width="14.7245" height="0.817822" transform="matrix(0.869277 -0.494326 2.2367e-08 1 41.5 16.6821)" fill="#D4D4D4"/>
<rect width="14.5257" height="0.751044" transform="matrix(0.869277 -0.494326 0.869277 0.494326 41.0049 16.4307)" fill="white"/>
<rect width="9.30785" height="0.817822" transform="matrix(0.869277 -0.494326 2.2367e-08 1 41.5 8.12451)" fill="#D4D4D4"/>
<rect width="9.18216" height="0.751044" transform="matrix(0.869277 -0.494326 0.869277 0.494326 41.0049 7.87305)" fill="white"/>
<path d="M33.1113 11.2487L38.0968 8.20594L38.0968 9.01697L33.6653 11.5637L33.1113 11.2487Z" fill="#E1E5E9"/>
<rect width="6.196" height="0.776071" transform="matrix(0.869277 -0.494326 0.869277 0.494326 31.8652 11.2007)" fill="white"/>
<rect width="9.14009" height="11.7713" transform="matrix(0.866025 0.5 -0.866025 0.5 20.04 39.1914)" fill="#F3F1F6"/>
<rect width="8.95496" height="3.70742" transform="matrix(0.866025 0.5 -2.20305e-08 1 9.90527 45.0078)" fill="#D4D4D4"/>
<rect width="0.79955" height="2.90831" transform="matrix(0.866025 0.5 -2.20305e-08 1 17.6611 50.2705)" fill="#D4D4D4"/>
<path d="M17.4629 40.6348L18.2938 41.1145L18.2938 42.9807L17.4629 41.6149L17.4629 40.6348Z" fill="#D4D4D4"/>
<path d="M16.7695 39.4688L17.462 39.8685L17.462 41.7348L16.7695 40.4382L16.7695 39.4688Z" fill="#D4D4D4"/>
<rect width="0.79955" height="2.27902" transform="matrix(0.866025 0.5 -2.20305e-08 1 18.3535 51.2397)" fill="#D4D4D4"/>
<rect width="0.79955" height="1.0138" transform="matrix(0.866025 0.5 -2.20305e-08 1 19.7383 53.3174)" fill="#D4D4D4"/>
<rect width="0.79955" height="1.69989" transform="matrix(0.866025 0.5 -2.20305e-08 1 19.0459 52.2095)" fill="#D4D4D4"/>
<rect width="0.796295" height="11.7713" transform="matrix(0.866025 0.5 -0.866025 0.5 27.8555 44.4541)" fill="#F3F1F6"/>
<rect width="0.796295" height="10.0125" transform="matrix(0.866025 0.5 -0.866025 0.5 24.748 33.2368)" fill="#F3F1F6"/>
<rect width="0.796295" height="10.0125" transform="matrix(0.866025 0.5 -0.866025 0.5 26.1338 35.7295)" fill="#F3F1F6"/>
<rect width="0.796295" height="10.0125" transform="matrix(0.866025 0.5 -0.866025 0.5 25.4414 34.4829)" fill="#F3F1F6"/>
<rect width="0.796295" height="11.7713" transform="matrix(0.866025 0.5 -0.866025 0.5 28.5479 45.4233)" fill="#F3F1F6"/>
<rect width="0.796295" height="11.7713" transform="matrix(0.866025 0.5 -0.866025 0.5 29.2402 46.3931)" fill="#F3F1F6"/>
<rect width="0.796295" height="11.7713" transform="matrix(0.866025 0.5 -0.866025 0.5 29.9326 47.501)" fill="#F3F1F6"/>
<rect width="0.796295" height="11.7713" transform="matrix(0.866025 0.5 -0.866025 0.5 29.9326 47.501)" fill="#F3F1F6"/>
<rect width="0.796295" height="11.7713" transform="matrix(0.866025 0.5 -0.866025 0.5 29.9326 47.501)" fill="#F3F1F6"/>
<rect width="5.14598" height="11.7713" transform="matrix(0.866025 0.5 -0.866025 0.5 30.625 47.916)" fill="#F3F1F6"/>
<rect width="5.27703" height="1.0138" transform="matrix(0.866025 0.5 -2.20305e-08 1 20.4307 53.7324)" fill="#D4D4D4"/>
<rect width="5.14598" height="10.3051" transform="matrix(0.866025 0.5 -0.866025 0.5 27.2412 36.8374)" fill="#F3F1F6"/>
<rect width="5.14598" height="9.61489" transform="matrix(0.866025 0.5 -0.866025 0.5 20.3174 29.9131)" fill="#F3F1F6"/>
<rect width="10.3942" height="0.796345" transform="matrix(0.866025 -0.5 2.20305e-08 1 22.8633 44.6616)" fill="white"/>
<rect width="10.0123" height="0.796345" transform="matrix(0.866025 -0.5 2.20305e-08 1 16.0771 37.4121)" fill="white"/>
<rect width="10.0123" height="0.796345" transform="matrix(0.866025 -0.5 2.20305e-08 1 18.293 41.1509)" fill="white"/>
<rect width="10.0123" height="0.796345" transform="matrix(0.866025 -0.5 2.20305e-08 1 16.7695 38.6582)" fill="white"/>
<rect width="10.0123" height="0.796345" transform="matrix(0.866025 -0.5 2.20305e-08 1 17.4629 39.9048)" fill="white"/>
<rect width="5.27703" height="1.0138" transform="matrix(0.866025 0.5 -2.20305e-08 1 18.293 41.9614)" fill="#D4D4D4"/>
<path d="M16.0771 38.2222L16.6394 39.607L18.2929 43.0692L16.0771 38.4299L16.0771 38.2222Z" fill="#D4D4D4"/>
</svg>
