<svg width="250" height="77" viewBox="0 0 250 77" fill="none" xmlns="http://www.w3.org/2000/svg">
<rect width="79.1827" height="45.8696" transform="matrix(0.871257 -0.490827 0.871257 0.490827 0.758301 53.9639)" fill="#C3D3D9"/>
<rect width="36.6952" height="16.0328" transform="matrix(0.866025 0.5 -2.20305e-08 1 57.3789 9.9165)" fill="#DFE5E8"/>
<rect width="19.75" height="36.6947" transform="matrix(0.866025 -0.5 0.866025 0.5 57.3789 9.96045)" fill="#F3F1F6"/>
<rect width="19.6719" height="11.4649" transform="matrix(0.866025 -0.5 2.20305e-08 1 45.1558 26.7256)" fill="#D4D4D4"/>
<rect width="18.8608" height="0.688875" transform="matrix(0.866025 -0.5 2.20305e-08 1 45.9336 25.709)" fill="#FFFBFB"/>
<rect width="19.6714" height="4.8659" transform="matrix(0.866025 -0.5 0.866025 0.5 41.3779 22.2549)" fill="#F3F1F6"/>
<rect width="1.77785" height="16.6673" transform="matrix(0.866025 0.5 -2.20305e-08 1 38.6001 17.5474)" fill="#DFE6EB"/>
<rect width="1.22227" height="16.6673" transform="matrix(0.866025 -0.5 2.20305e-08 1 40.1558 18.4468)" fill="#D4D4D4"/>
<rect width="1.77785" height="1.22227" transform="matrix(0.866025 0.5 -0.866025 0.5 39.7114 16.9468)" fill="#F6F4F9"/>
<rect width="9.00035" height="14.5561" transform="matrix(0.866025 0.5 -2.20305e-08 1 8.54053 37.0493)" fill="#DFE5E8"/>
<rect width="34.6894" height="9.00035" transform="matrix(0.866025 -0.5 0.866025 0.5 8.54053 37.0693)" fill="#F3F1F6"/>
<rect width="34.7099" height="14.5561" transform="matrix(0.866025 -0.5 2.20305e-08 1 16.0962 41.5552)" fill="#D4D4D4"/>
<rect width="34.6894" height="2.09028" transform="matrix(0.866025 -0.5 0.866025 0.5 15.1548 56.6255)" fill="#5D7B46"/>
<rect width="31.5888" height="2.09028" transform="matrix(0.866025 0.5 -0.866025 0.5 62.9668 28.9756)" fill="#5D7B46"/>
<rect width="1.77785" height="16.6673" transform="matrix(0.866025 0.5 -2.20305e-08 1 7.26562 35.6499)" fill="#DFE6EB"/>
<rect width="1.22227" height="16.6673" transform="matrix(0.866025 -0.5 2.20305e-08 1 8.82129 36.5493)" fill="#D4D4D4"/>
<rect width="1.77785" height="1.22227" transform="matrix(0.866025 0.5 -0.866025 0.5 8.37695 35.0493)" fill="#F6F4F9"/>
<rect width="1.77785" height="16.6673" transform="matrix(0.866025 0.5 -2.20305e-08 1 13.874 39.2056)" fill="#DFE6EB"/>
<rect width="1.22227" height="16.6673" transform="matrix(0.866025 -0.5 2.20305e-08 1 15.4297 40.105)" fill="#D4D4D4"/>
<rect width="1.77785" height="1.22227" transform="matrix(0.866025 0.5 -0.866025 0.5 14.9854 38.605)" fill="#F6F4F9"/>
<path d="M9.87695 36.4893L39.3781 19.4972L39.3781 20.1479L9.87695 36.9338L9.87695 36.4893Z" fill="#E1E5E9"/>
<path d="M9.99501 35.9222L38.8838 19.2538L39.507 19.6082L9.87703 36.4893L9.99501 35.9222Z" fill="white"/>
<path d="M16.5835 41.1563L46.4893 23.9341L46.4893 24.5848L16.5835 41.6008L16.5835 41.1563Z" fill="#E1E5E9"/>
<path d="M16.7076 40.5858L45.9128 23.7375L46.536 24.0919L16.5836 41.1563L16.7076 40.5858Z" fill="white"/>
<path d="M47.0449 29.543L62.1724 20.7247L62.1724 21.3755L47.0449 29.9875L47.0449 29.543Z" fill="#E1E5E9"/>
<path d="M47.545 23.9837L63.572 14.685L63.572 15.6667L46.4736 25.4044L47.545 23.9837Z" fill="#E1E5E9"/>
<path d="M46.4664 24.0799L63.0318 14.4195L63.655 14.7738L46.5846 24.5128L46.4664 24.0799Z" fill="white"/>
<path d="M47.2767 28.8809L61.5874 20.5026L62.2105 20.857L47.4381 29.2891L47.2767 28.8809Z" fill="white"/>
<rect width="13.7286" height="0.638954" transform="matrix(0.866025 -0.5 2.20305e-08 1 30.8218 50.3643)" fill="white"/>
<rect width="13.472" height="0.638954" transform="matrix(0.866025 -0.5 2.20305e-08 1 31.9331 52.2534)" fill="white"/>
<rect width="13.6003" height="0.638954" transform="matrix(0.866025 -0.5 2.20305e-08 1 31.3774 51.3643)" fill="white"/>
<rect width="4.88908" height="13.7218" transform="matrix(0.866025 0.5 -0.866025 0.5 37.9272 40.1699)" fill="#F3F1F6"/>
<rect width="4.88908" height="2.77841" transform="matrix(0.866025 0.5 -2.20305e-08 1 26.1553 46.9751)" fill="#D4D4D4"/>
<rect width="0.641525" height="1.37774" transform="matrix(0.866025 0.5 -2.20305e-08 1 30.8218 50.9756)" fill="#D4D4D4"/>
<rect width="0.641525" height="2.12004" transform="matrix(0.866025 0.5 -2.20305e-08 1 30.3774 49.9756)" fill="#D4D4D4"/>
<rect width="0.641525" height="0.801424" transform="matrix(0.866025 0.5 -2.20305e-08 1 31.3774 51.8643)" fill="#D4D4D4"/>
<rect width="0.638914" height="13.5545" transform="matrix(0.866025 0.5 -0.866025 0.5 42.1162 43.2539)" fill="#F3F1F6"/>
<rect width="0.638914" height="9.44481" transform="matrix(0.866025 0.5 -0.866025 0.5 39.0015 46.3086)" fill="#F3F1F6"/>
<rect width="0.638914" height="9.44481" transform="matrix(0.866025 0.5 -0.866025 0.5 39.0015 46.3086)" fill="#F3F1F6"/>
<rect width="0.638914" height="13.6646" transform="matrix(0.866025 0.5 -0.866025 0.5 42.6558 44.1987)" fill="#F3F1F6"/>
<rect width="0.638914" height="13.5202" transform="matrix(0.866025 0.5 -0.866025 0.5 43.0864 45.1597)" fill="#F3F1F6"/>
<rect width="13.6003" height="0.638954" transform="matrix(0.866025 -0.5 2.20305e-08 1 30.3774 49.3643)" fill="white"/>
<rect width="1.26982" height="19.3176" transform="matrix(0.866025 0.5 -0.866025 0.5 61.8804 28.4683)" fill="#F3F1F6"/>
<rect width="15.0199" height="5.17999" transform="matrix(-0.866025 0.5 0.866025 0.5 39.1626 34.6138)" fill="#F3F1F6"/>
<rect width="5.1322" height="0.736695" transform="matrix(-0.866025 -0.5 -2.20305e-08 1 30.0444 45.0693)" fill="#D5D5D7"/>
<rect width="5.1802" height="0.680687" transform="matrix(-0.866025 -0.5 -0.866025 0.5 30.564 44.6489)" fill="#FCF9FE"/>
<rect width="0.336853" height="3.70726" transform="matrix(-0.866025 0.5 2.20305e-08 1 30.3359 45.5034)" fill="#DFE7E9"/>
<rect width="0.336853" height="3.6283" transform="matrix(-0.866025 -0.5 -2.20305e-08 1 30.1138 45.6719)" fill="#D1D4D5"/>
<rect width="0.336853" height="3.70726" transform="matrix(-0.866025 0.5 2.20305e-08 1 26.5581 43.2812)" fill="#DFE7E9"/>
<rect width="0.336853" height="3.6283" transform="matrix(-0.866025 -0.5 -2.20305e-08 1 26.3359 43.4497)" fill="#D1D4D5"/>
<rect width="0.336853" height="3.70726" transform="matrix(-0.866025 0.5 2.20305e-08 1 34.6699 42.9478)" fill="#DFE7E9"/>
<rect width="0.336853" height="3.6283" transform="matrix(-0.866025 -0.5 -2.20305e-08 1 34.4478 43.1162)" fill="#D1D4D5"/>
<rect width="0.336853" height="3.70726" transform="matrix(-0.866025 0.5 2.20305e-08 1 38.5591 40.7256)" fill="#DFE7E9"/>
<rect width="0.336853" height="3.6283" transform="matrix(-0.866025 -0.5 -2.20305e-08 1 38.3369 40.894)" fill="#D1D4D5"/>
<rect width="0.336853" height="3.70726" transform="matrix(-0.866025 0.5 2.20305e-08 1 41.7812 38.7256)" fill="#DFE7E9"/>
<rect width="0.336853" height="3.6283" transform="matrix(-0.866025 -0.5 -2.20305e-08 1 41.5591 38.894)" fill="#D1D4D5"/>
<rect width="0.64153" height="13.395" transform="matrix(-0.866025 0.5 2.20305e-08 1 50.7124 22.0166)" fill="#DFE7E9"/>
<rect width="0.336853" height="13.3948" transform="matrix(-0.866025 -0.5 -2.20305e-08 1 50.2266 22.3374)" fill="#D1D4D5"/>
<rect width="0.64153" height="13.395" transform="matrix(-0.866025 0.5 2.20305e-08 1 58.0454 17.8354)" fill="#DFE7E9"/>
<rect width="0.336853" height="13.3948" transform="matrix(-0.866025 -0.5 -2.20305e-08 1 57.5596 18.1562)" fill="#D1D4D5"/>
<path d="M42.1645 37.2929L29.7108 44.4831L30.6758 45.0403L42.7113 37.5843L42.1645 37.2929Z" fill="#FCF9FE"/>
<rect width="15.6532" height="0.680687" transform="matrix(-0.866025 0.5 2.20305e-08 1 43.6006 37.1694)" fill="#DFE7E9"/>
<rect width="5.1802" height="0.680687" transform="matrix(-0.866025 -0.5 -0.866025 0.5 43.6353 37.1807)" fill="#FCF9FE"/>
<path d="M43.0449 37.5508L38.6002 34.947L38.6002 35.6277L41.6413 37.44L43.0449 37.5508Z" fill="#D5D5D7"/>
<rect width="0.643571" height="13.5646" transform="matrix(-0.863279 0.504727 2.1755e-08 1 77.9355 24.1978)" fill="#DFE7E9"/>
<rect width="0.337924" height="13.5644" transform="matrix(-0.863279 -0.504727 -2.1755e-08 1 77.4497 24.5225)" fill="#D1D4D5"/>
<rect width="0.643571" height="13.5646" transform="matrix(-0.863279 0.504727 2.1755e-08 1 80.7129 25.9756)" fill="#DFE7E9"/>
<rect width="0.337924" height="13.5644" transform="matrix(-0.863279 -0.504727 -2.1755e-08 1 80.2266 26.3003)" fill="#D1D4D5"/>
<rect width="0.643571" height="13.5646" transform="matrix(-0.863279 0.504727 2.1755e-08 1 72.7119 21.4199)" fill="#DFE7E9"/>
<rect width="0.337924" height="13.5644" transform="matrix(-0.863279 -0.504727 -2.1755e-08 1 72.2256 21.7446)" fill="#D1D4D5"/>
<rect width="0.643571" height="13.5646" transform="matrix(-0.863279 0.504727 2.1755e-08 1 70.0454 19.8643)" fill="#DFE7E9"/>
<rect width="0.337924" height="13.5644" transform="matrix(-0.863279 -0.504727 -2.1755e-08 1 69.5596 20.189)" fill="#D1D4D5"/>
<rect width="0.643571" height="13.5646" transform="matrix(-0.863279 0.504727 2.1755e-08 1 67.1562 18.1973)" fill="#DFE7E9"/>
<rect width="0.337924" height="13.5644" transform="matrix(-0.863279 -0.504727 -2.1755e-08 1 66.6699 18.522)" fill="#D1D4D5"/>
<rect width="0.643571" height="13.5646" transform="matrix(-0.863279 0.504727 2.1755e-08 1 64.3789 16.7529)" fill="#DFE7E9"/>
<rect width="0.337924" height="13.5644" transform="matrix(-0.863279 -0.504727 -2.1755e-08 1 63.8926 17.0776)" fill="#D1D4D5"/>
<rect width="0.643571" height="13.5646" transform="matrix(-0.863279 0.504727 2.1755e-08 1 75.3799 22.9756)" fill="#DFE7E9"/>
<rect width="0.337924" height="13.5644" transform="matrix(-0.863279 -0.504727 -2.1755e-08 1 74.894 23.3003)" fill="#D1D4D5"/>
<rect width="15.6532" height="0.111115" transform="matrix(-0.866025 0.5 2.20305e-08 1 43.6006 37.5029)" fill="#D1D1D1"/>
<rect width="1.77785" height="16.6673" transform="matrix(0.866025 0.5 -2.20305e-08 1 45.1558 22.6587)" fill="#DFE6EB"/>
<rect width="1.22227" height="16.6673" transform="matrix(0.866025 -0.5 2.20305e-08 1 46.7114 23.5581)" fill="#D4D4D4"/>
<rect width="1.77785" height="1.22227" transform="matrix(0.866025 0.5 -0.866025 0.5 46.2671 22.0581)" fill="#F6F4F9"/>
<rect width="1.77785" height="16.6673" transform="matrix(0.866025 0.5 -2.20305e-08 1 45.1558 22.6587)" fill="#DFE6EB"/>
<rect width="1.22227" height="16.6673" transform="matrix(0.866025 -0.5 2.20305e-08 1 46.7114 23.5581)" fill="#D4D4D4"/>
<rect width="1.77785" height="1.22227" transform="matrix(0.866025 0.5 -0.866025 0.5 46.2671 22.0581)" fill="#F6F4F9"/>
<rect width="1.22227" height="1.00004" transform="matrix(0.866025 -0.5 2.20305e-08 1 82.7129 26.5864)" fill="#D4D4D4"/>
<rect width="19.759" height="16.3586" transform="matrix(0.866025 -0.5 2.20305e-08 1 89.1577 27.8491)" fill="#D9D9D9"/>
<rect width="25.1862" height="1.17396" transform="matrix(0.866025 0.5 -0.866025 0.5 62.0615 13.3081)" fill="white"/>
<rect width="22.5817" height="1.00004" transform="matrix(0.866025 0.5 -2.20305e-08 1 63.1562 15.3081)" fill="#DFE5E8"/>
<rect width="15.0199" height="5.17999" transform="matrix(-0.866025 0.5 0.866025 0.5 104.72 22.4434)" fill="#F3F1F6"/>
<rect width="5.1322" height="0.736695" transform="matrix(-0.866025 -0.5 -2.20305e-08 1 95.6016 32.8984)" fill="#D5D5D7"/>
<rect width="5.1802" height="0.680687" transform="matrix(-0.866025 -0.5 -0.866025 0.5 96.1211 32.478)" fill="#FCF9FE"/>
<path d="M107.722 25.1225L95.2684 32.3127L96.2335 32.8698L108.269 25.4139L107.722 25.1225Z" fill="#FCF9FE"/>
<rect width="15.6532" height="0.680687" transform="matrix(-0.866025 0.5 2.20305e-08 1 109.157 24.999)" fill="#DFE7E9"/>
<rect width="5.1802" height="0.680687" transform="matrix(-0.866025 -0.5 -0.866025 0.5 109.192 25.0103)" fill="#FCF9FE"/>
<path d="M108.602 25.3804L104.157 22.7766L104.157 23.4573L107.198 25.2696L108.602 25.3804Z" fill="#D5D5D7"/>
<rect width="13.7286" height="0.638954" transform="matrix(0.866025 -0.5 2.20305e-08 1 96.9355 42.7256)" fill="white"/>
<rect width="13.472" height="0.638954" transform="matrix(0.866025 -0.5 2.20305e-08 1 98.0459 44.6147)" fill="white"/>
<rect width="13.6003" height="0.638954" transform="matrix(0.866025 -0.5 2.20305e-08 1 97.4912 43.7256)" fill="white"/>
<rect width="4.88908" height="13.7218" transform="matrix(0.866025 0.5 -0.866025 0.5 104.041 32.5312)" fill="#F3F1F6"/>
<rect width="4.88908" height="2.77841" transform="matrix(0.866025 0.5 -2.20305e-08 1 92.2686 39.3364)" fill="#D4D4D4"/>
<rect width="0.641525" height="1.37774" transform="matrix(0.866025 0.5 -2.20305e-08 1 96.9355 43.3369)" fill="#D4D4D4"/>
<rect width="0.641525" height="2.12004" transform="matrix(0.866025 0.5 -2.20305e-08 1 96.4902 42.3369)" fill="#D4D4D4"/>
<rect width="0.641525" height="0.801424" transform="matrix(0.866025 0.5 -2.20305e-08 1 97.4912 44.2256)" fill="#D4D4D4"/>
<rect width="0.638914" height="13.5545" transform="matrix(0.866025 0.5 -0.866025 0.5 108.229 35.6152)" fill="#F3F1F6"/>
<rect width="0.638914" height="9.44481" transform="matrix(0.866025 0.5 -0.866025 0.5 105.114 38.6699)" fill="#F3F1F6"/>
<rect width="0.638914" height="9.44481" transform="matrix(0.866025 0.5 -0.866025 0.5 105.114 38.6699)" fill="#F3F1F6"/>
<rect width="0.638914" height="13.6646" transform="matrix(0.866025 0.5 -0.866025 0.5 108.77 36.5601)" fill="#F3F1F6"/>
<rect width="0.638914" height="13.5202" transform="matrix(0.866025 0.5 -0.866025 0.5 109.199 37.521)" fill="#F3F1F6"/>
<rect width="13.6003" height="0.638954" transform="matrix(0.866025 -0.5 2.20305e-08 1 96.4902 41.7256)" fill="white"/>
<rect width="0.36017" height="7.87646" transform="matrix(-0.809959 0.586486 1.75659e-08 1 95.8936 33.3325)" fill="#DFE7E9"/>
<rect width="0.36017" height="7.87672" transform="matrix(-0.809959 -0.586486 -1.75659e-08 1 95.6709 33.5439)" fill="#D1D4D5"/>
<path d="M100.005 30.8877L99.6576 31.142L99.7132 39.9757L100.005 39.5808L100.005 30.8877Z" fill="#DFE7E9"/>
<path d="M99.7822 31.2827L99.6572 31.1421L99.4905 31.2454L99.4905 39.3957L99.7822 39.7906L99.7822 31.2827Z" fill="#D1D4D5"/>
<path d="M104.005 28.6659L103.713 28.8091L103.713 37.6427L104.005 37.2526L104.005 28.6659Z" fill="#DFE7E9"/>
<path d="M103.782 28.7866L103.491 28.951L103.491 37.0697L103.782 37.4598L103.782 28.7866Z" fill="#D1D4D5"/>
<path d="M107.116 26.8645L106.824 27.0312L106.824 35.8649L107.116 35.4748L107.116 26.8645Z" fill="#DFE7E9"/>
<path d="M106.824 27.0311L106.602 27.1422L106.602 35.2918L106.894 35.6819L106.824 27.0311Z" fill="#D1D4D5"/>
<path d="M92.6709 31.9207L92.3792 31.8095L92.3792 39.6173L92.6709 39.4489L92.6709 31.9207Z" fill="#DFE7E9"/>
<rect width="0.336853" height="7.73191" transform="matrix(-0.866025 -0.5 -2.20305e-08 1 92.4482 31.7817)" fill="#D1D4D5"/>
</svg>
