<svg width="116" height="65" viewBox="0 0 163 65" fill="none" xmlns="http://www.w3.org/2000/svg">
<rect width="76.8613" height="55.3806" transform="matrix(0.871257 -0.490827 0.871257 0.490827 0 37.7256)" fill="#C3D3D9"/>
<rect width="10.8258" height="14.7372" transform="matrix(0.866025 -0.5 0.866025 0.5 34.7246 17.7905)" fill="#F3F1F6"/>
<rect width="14.7289" height="13.0757" transform="matrix(0.866025 -0.5 0.866025 0.5 36.6172 18.0898)" fill="#F3F1F6"/>
<rect width="13.3244" height="10.4622" transform="matrix(0.866025 0.5 -2.20305e-08 1 54.0518 16.7026)" fill="#DFE5E8"/>
<path d="M31.7907 34.6782L35.2225 30.0523L35.3221 35.8705L30.1914 38.0721L31.7907 34.6782Z" fill="#D4D4D4"/>
<rect width="15.9702" height="15.7923" transform="matrix(0.866025 0.5 -2.20305e-08 1 34.8242 17.5991)" fill="#DFE5E8"/>
<rect width="14.9391" height="15.7514" transform="matrix(0.866025 -0.5 2.20305e-08 1 48.6719 38.8174)" fill="#D4D4D4"/>
<path d="M52.3584 32.0425L64.2138 25.1978L64.2138 32.7966L59.7805 37.1755L52.3584 32.0425Z" fill="#D4D4D4"/>
<path d="M48.1045 18.7568L79.8199 0.445923L92.1023 7.53714L65.4094 23.4273L48.1045 18.7568Z" fill="#F3F1F6"/>
<path d="M65.4092 23.4273L92.2083 7.50652L92.2083 18.1664L65.4092 33.6389L65.4092 23.4273Z" fill="#D4D4D4"/>
<rect width="10.0082" height="10.6599" transform="matrix(0.866025 -0.5 2.20305e-08 1 47.7754 24.4961)" fill="#D4D4D4"/>
<rect width="0.57702" height="8.07476" transform="matrix(-0.863279 0.504727 2.1755e-08 1 42.9316 27.8203)" fill="#D4D4D4"/>
<rect width="0.576829" height="8.13357" transform="matrix(-0.863279 -0.504727 -2.1755e-08 1 42.4961 28.0522)" fill="#DFE5E8"/>
<ellipse cx="8.56438" cy="7.01472" rx="8.56438" ry="7.01472" transform="matrix(0.91814 0.396257 -0.802238 0.597004 44.3711 11.2651)" fill="white"/>
<ellipse cx="8.56438" cy="7.01472" rx="8.56438" ry="7.01472" transform="matrix(0.91814 0.396257 -0.802238 0.597004 44.3857 11.3228)" fill="#DFE5E8"/>
<ellipse cx="9.77476" cy="7.35153" rx="9.77476" ry="7.35153" transform="matrix(0.91814 0.396257 -0.802238 0.597004 42.7031 8.96533)" fill="white"/>
<rect width="14.7289" height="13.0757" transform="matrix(0.866025 -0.5 0.866025 0.5 37.4971 32.3359)" fill="#F3F1F6"/>
<path d="M49.2203 25.1212L54.4542 22.1822L64.2637 25.1211L56.742 29.9031L49.2203 25.1212Z" fill="#F3F1F6"/>
<path d="M45.7568 14.4579L53.7268 17.8949L53.4279 19.2897L52.5811 20.4852L50.8376 21.3818L48.8451 21.6309L47.1515 21.6309L45.4579 21.6309L43.8141 21.3818L42.2201 20.9335L39.9287 20.0369L38.3845 18.7916L37.6373 16.8987L45.7568 14.4579Z" fill="#DFE5E8"/>
<path d="M45.3793 14.6334L37.4909 16.9434L38.3925 14.2584L40.0456 13.2046L42.0066 12.7725L43.693 12.6161L45.3793 12.4596L47.0391 12.5558L48.6677 12.8549L51.0321 13.536L52.6848 14.6334L53.5038 16.2546L53.7529 17.9054L45.3793 14.6334Z" fill="#F3F1F6"/>
<path d="M55.0488 14.9595L80.5528 0.290266L80.5528 0.87371L55.2979 15.2583L55.0488 14.9595Z" fill="#E1E5E9"/>
<path d="M54.6502 14.6106L80.0933 -3.5705e-05L80.5786 0.275944L55.0487 14.9592L54.6502 14.6106Z" fill="white"/>
<path d="M47.5762 39.2485L61.8937 30.9407L61.8937 31.5241L47.5762 39.62L47.5762 39.2485Z" fill="#E1E5E9"/>
<path d="M48.4786 38.1599L61.4344 30.6504L61.9197 30.9264L48.9295 38.4788L48.4786 38.1599Z" fill="white"/>
<path d="M65.459 22.8295L92.3409 7.22937L92.3409 7.81282L65.459 23.4272L65.459 22.8295Z" fill="#E1E5E9"/>
<path d="M64.9114 22.7302L91.8818 6.93958L92.3672 7.21557L65.4593 22.8298L64.9114 22.7302Z" fill="white"/>
<path d="M64.9111 22.7299L65.4591 22.8295L65.4591 23.4273L64.9111 23.3277L64.9111 22.7299Z" fill="#D4D4D4"/>
<path d="M30.042 37.6738L35.2225 30.451L35.2225 31.248L30.042 38.4708L30.042 37.6738Z" fill="#D4D4D4"/>
<path d="M29.5439 37.6243L34.9735 29.8037L35.409 30.1295L29.9922 37.9232L29.5439 37.6243Z" fill="white"/>
<rect width="0.575185" height="0.57288" transform="matrix(-0.866025 -0.5 -2.20305e-08 1 30.042 37.9116)" fill="#F3F1F6"/>
<rect width="12.309" height="0.57288" transform="matrix(-0.866025 -0.5 -2.20305e-08 1 41.5342 42.2808)" fill="white"/>
<rect width="12.0789" height="0.57288" transform="matrix(-0.866025 -0.5 -2.20305e-08 1 40.5381 43.9746)" fill="white"/>
<rect width="12.1939" height="0.57288" transform="matrix(-0.866025 -0.5 -2.20305e-08 1 41.0361 43.1772)" fill="white"/>
<rect width="4.3835" height="12.3028" transform="matrix(-0.866025 0.5 0.866025 0.5 35.1641 33.041)" fill="#F3F1F6"/>
<rect width="4.3835" height="2.49109" transform="matrix(-0.866025 0.5 2.20305e-08 1 45.7188 39.2422)" fill="#D4D4D4"/>
<rect width="0.575185" height="1.23527" transform="matrix(-0.866025 0.5 2.20305e-08 1 41.5342 42.8286)" fill="#D4D4D4"/>
<rect width="0.575185" height="1.90081" transform="matrix(-0.866025 0.5 2.20305e-08 1 41.9326 41.9321)" fill="#D4D4D4"/>
<rect width="0.575185" height="0.718549" transform="matrix(-0.866025 0.5 2.20305e-08 1 41.0361 43.626)" fill="#D4D4D4"/>
<rect width="0.572844" height="12.1529" transform="matrix(-0.866025 0.5 0.866025 0.5 31.4082 35.9053)" fill="#F3F1F6"/>
<rect width="0.572844" height="8.46812" transform="matrix(-0.866025 0.5 0.866025 0.5 34.2012 38.6445)" fill="#F3F1F6"/>
<rect width="0.572844" height="8.46812" transform="matrix(-0.866025 0.5 0.866025 0.5 34.2012 38.6445)" fill="#F3F1F6"/>
<rect width="0.572844" height="12.2515" transform="matrix(-0.866025 0.5 0.866025 0.5 30.9248 36.7529)" fill="#F3F1F6"/>
<rect width="0.572844" height="12.122" transform="matrix(-0.866025 0.5 0.866025 0.5 30.5381 37.6147)" fill="#F3F1F6"/>
<rect width="12.1939" height="0.57288" transform="matrix(-0.866025 -0.5 -2.20305e-08 1 41.9326 41.3843)" fill="white"/>
<path d="M41.2002 29.2058L41.2002 29.0065L41.0009 28.608L40.7021 28.359L40.3036 27.9107L39.8054 27.562L39.3073 27.4623L38.8092 27.3627L38.5103 27.3627L38.0122 27.3627L37.6137 27.562L37.6137 35.7662L41.1006 37.2754L41.2002 29.2058Z" fill="#F3F1F6"/>
<rect width="0.57702" height="6.94348" transform="matrix(-0.863279 0.504727 2.1755e-08 1 37.6143 27.4976)" fill="#D4D4D4"/>
<rect width="1.54329" height="8.30386" transform="matrix(-0.863279 -0.504727 -2.1755e-08 1 37.1162 26.3208)" fill="#DFE5E8"/>
<path d="M36.4561 25.7684L40.4032 25.1706L39.9549 25.4695L36.0197 26.0203L36.4561 25.7684Z" fill="white"/>
<path d="M37.8135 31.9399L50.7647 24.409L50.7647 24.9925L37.8135 32.3114L37.8135 31.9399Z" fill="#E1E5E9"/>
<path d="M37.3031 31.6554L50.3176 24.1125L50.8029 24.3884L37.7537 31.9744L37.3031 31.6554Z" fill="white"/>
<rect width="13.0322" height="0.569939" transform="matrix(0.866025 0.5 -0.866025 0.5 38.0078 31.6465)" fill="white"/>
<path d="M37.5146 31.8364L48.8719 38.3935L48.8719 38.9583L37.5146 32.3936L37.5146 31.8364Z" fill="#DFE5E8"/>
<path d="M40.3535 25.1709L42.894 27.7611L42.5282 28.06L39.955 25.4698L40.3535 25.1709Z" fill="white"/>
<rect width="12.8937" height="0.503878" transform="matrix(0.866025 0.5 -0.866025 0.5 50.8027 24.4072)" fill="white"/>
<path d="M50.3662 24.564L61.1257 30.8496L60.7272 31.1485L50.3662 25.1212L50.3662 24.564Z" fill="#DFE5E8"/>
<rect width="13.3244" height="15.7923" transform="matrix(0.866025 0.5 -2.20305e-08 1 37.5137 31.9453)" fill="#DFE5E8"/>
</svg>
