<svg width="16" height="16" viewBox="0 0 16 16" fill="none" xmlns="http://www.w3.org/2000/svg">
<rect width="16" height="16" fill="white"/>
<path d="M-3202 -3400C-3202 -3401.1 -3201.1 -3402 -3200 -3402H8693C8694.1 -3402 8695 -3401.1 8695 -3400V4165C8695 4166.1 8694.1 4167 8693 4167H-3200C-3201.1 4167 -3202 4166.1 -3202 4165V-3400Z" fill="#A5A2A2"/>
<path d="M-3200 -3401H8693V-3403H-3200V-3401ZM8694 -3400V4165H8696V-3400H8694ZM8693 4166H-3200V4168H8693V4166ZM-3201 4165V-3400H-3203V4165H-3201ZM-3200 4166C-3200.55 4166 -3201 4165.55 -3201 4165H-3203C-3203 4166.66 -3201.66 4168 -3200 4168V4166ZM8694 4165C8694 4165.55 8693.55 4166 8693 4166V4168C8694.66 4168 8696 4166.66 8696 4165H8694ZM8693 -3401C8693.55 -3401 8694 -3400.55 8694 -3400H8696C8696 -3401.66 8694.66 -3403 8693 -3403V-3401ZM-3200 -3403C-3201.66 -3403 -3203 -3401.66 -3203 -3400H-3201C-3201 -3400.55 -3200.55 -3401 -3200 -3401V-3403Z" fill="black" fill-opacity="0.1"/>
<g clip-path="url(#clip0_23_2)">
<rect width="390" height="845.496" transform="translate(-301 -278)" fill="white"/>
<rect x="-219" y="-20" width="255" height="410" rx="22" fill="#F5F5F5"/>
<path d="M2.24561 16L0 13.7544L5.77444 7.97995L0 2.24561L2.24561 0L8.02005 5.77444L13.7544 0L16 2.24561L10.2256 7.97995L16 13.7544L13.7544 16L8.02005 10.2256L2.24561 16Z" fill="#C3C0C0"/>
</g>
<defs>
<clipPath id="clip0_23_2">
<rect width="390" height="845.496" fill="white" transform="translate(-301 -278)"/>
</clipPath>
</defs>
</svg>
