<svg width="11" height="12" viewBox="0 0 11 12" fill="none" xmlns="http://www.w3.org/2000/svg">
<path id="Vector" d="M9.82042 4.24037L7.26243 1.56148L8.10506 0.668512C8.33578 0.424009 8.61927 0.301758 8.95552 0.301758C9.29137 0.301758 9.57466 0.424009 9.80538 0.668512L10.648 1.56148C10.8787 1.80598 10.9991 2.10108 11.0091 2.44679C11.0192 2.79207 10.9088 3.08696 10.6781 3.33146L9.82042 4.24037ZM0.611647 11.9422C0.441114 11.9422 0.298267 11.881 0.183107 11.7585C0.0675463 11.6365 0.00976562 11.4851 0.00976562 11.3044V9.50249C0.00976562 9.41745 0.0248127 9.33517 0.0549067 9.25565C0.0850008 9.17571 0.130142 9.10385 0.19033 9.04007L6.3897 2.47039L8.9477 5.18118L2.74832 11.7509C2.68814 11.8146 2.62052 11.8625 2.54549 11.8944C2.47005 11.9263 2.39221 11.9422 2.31196 11.9422H0.611647Z" fill="#B1B0B0"/>
</svg>
