<svg width="300" height="190" viewBox="0 0 290 250" fill="none" xmlns="http://www.w3.org/2000/svg">
<line x1="269.5" y1="151.529" x2="269.5" y2="163.529" stroke="black"/>
<path d="M317.5 118.761C317.5 139.196 317.5 151.261 283.5 151.261C249.5 151.261 246 142.963 246 122.529C246 102.094 256.565 77.261 277 77.261C297.435 77.261 317.5 98.3265 317.5 118.761Z" fill="#F7DA3A"/>
<path d="M274 108.81C274 111.816 271.563 114.979 268.557 114.979C265.551 114.979 264 111.816 264 108.81C264 105.804 265.551 101.916 268.557 101.916C271.563 101.916 274 105.804 274 108.81Z" fill="white"/>
<path d="M271.202 106.94C271.75 112.467 269.597 114.979 267.617 114.979C264.031 113.528 264.031 110.988 264.031 106.94C264.031 104.165 265.636 101.916 267.617 101.916C269.597 101.916 271.202 104.165 271.202 106.94Z" fill="black"/>
<path d="M296 108.423C296 111.429 293.563 114.592 290.557 114.592C287.551 114.592 286 111.429 286 108.423C286 105.417 287.551 101.529 290.557 101.529C293.563 101.529 296 105.417 296 108.423Z" fill="white"/>
<path d="M293.202 106.553C293.75 112.08 291.597 114.592 289.617 114.592C286.031 113.14 286.031 110.6 286.031 106.553C286.031 103.778 287.636 101.529 289.617 101.529C291.597 101.529 293.202 103.778 293.202 106.553Z" fill="black"/>
<line x1="274.355" y1="120.273" x2="280.494" y2="128.791" stroke="black" stroke-width="0.875"/>
<line y1="-0.4375" x2="10.5" y2="-0.4375" transform="matrix(-0.584679 0.811265 0.811265 0.584679 286.139 120.529)" stroke="black" stroke-width="0.875"/>
<path d="M289.176 74.9135C290.487 72.6402 293.124 71.4827 295.685 72.0561L323.078 78.189C324.515 78.5106 324.987 80.3215 323.89 81.3035V81.3035C323.518 81.6373 323.3 82.1104 323.288 82.6105L323.182 87.2539C323.096 91.0392 319.568 93.7991 315.873 92.9719L290.969 87.3965C287.019 86.5121 285.06 82.0503 287.083 78.5438L289.176 74.9135Z" fill="black"/>
<rect x="269.5" y="163.529" width="13" height="2" rx="1" transform="rotate(-90 269.5 163.529)" fill="black"/>
<rect x="290" y="163.529" width="13" height="2" rx="1" transform="rotate(-90 290 163.529)" fill="black"/>
<line x1="269.5" y1="151.529" x2="269.5" y2="163.529" stroke="black"/>
<path d="M317.5 118.761C317.5 139.196 317.5 151.261 283.5 151.261C249.5 151.261 246 142.963 246 122.529C246 102.094 256.565 77.261 277 77.261C297.435 77.261 317.5 98.3265 317.5 118.761Z" fill="#EEE8A9"/>
<line x1="276" y1="113.767" x2="284" y2="113.767" stroke="black" stroke-width="0.666667"/>
<path d="M289.176 74.9135C290.487 72.6402 293.124 71.4827 295.685 72.0561L323.078 78.189C324.515 78.5106 324.987 80.3215 323.89 81.3035V81.3035C323.518 81.6373 323.3 82.1104 323.288 82.6105L323.182 87.2539C323.096 91.0392 319.568 93.7991 315.873 92.9719L290.969 87.3965C287.019 86.5121 285.06 82.0503 287.083 78.5438L289.176 74.9135Z" fill="black"/>
<rect x="269.5" y="163.529" width="13" height="2" rx="1" transform="rotate(-90 269.5 163.529)" fill="black"/>
<rect x="290" y="163.529" width="13" height="2" rx="1" transform="rotate(-90 290 163.529)" fill="black"/>
<path d="M331.066 135.576C331.342 134.956 331.334 134.247 331.045 133.633L328.471 128.162C327.835 126.811 326.856 125.649 325.633 124.793L319.273 120.341C318.339 119.687 317.042 120.016 316.532 121.036V121.036C316.208 121.685 316.289 122.463 316.74 123.032L327.102 136.08C328.193 137.454 330.353 137.18 331.066 135.576V135.576Z" fill="black"/>
<path d="M233.434 131.576C233.158 130.956 233.166 130.247 233.455 129.633L236.029 124.162C236.665 122.811 237.644 121.649 238.867 120.793L245.227 116.341C246.161 115.687 247.458 116.016 247.968 117.036V117.036C248.292 117.685 248.211 118.463 247.76 119.032L237.398 132.08C236.307 133.454 234.147 133.18 233.434 131.576V131.576Z" fill="black"/>
<path d="M293.5 164.1C293.5 165.481 292.381 166.6 291 166.6C289.619 166.6 286 166.981 286 165.6C286 164.219 291.312 163.1 292.156 162.1C293.537 162.1 293.5 162.719 293.5 164.1Z" fill="black"/>
<path d="M272.5 163.1C272.5 164.481 271.381 165.6 270 165.6C268.619 165.6 265 165.981 265 164.6C265 163.219 270.312 162.1 271.156 161.1C272.537 161.1 272.5 161.719 272.5 163.1Z" fill="black"/>
<path d="M273.94 108.068C274.318 110.692 272.834 111.884 271.47 111.884C269 111.195 269 109.989 269 108.068C269 106.751 270.106 105.683 271.47 105.683C272.834 105.683 273.94 106.751 273.94 108.068Z" fill="black"/>
<path d="M289.812 107.485C290.19 110.108 288.706 111.301 287.342 111.301C284.872 110.612 284.872 109.406 284.872 107.485C284.872 106.168 285.978 105.1 287.342 105.1C288.706 105.1 289.812 106.168 289.812 107.485Z" fill="black"/>
<path d="M298.65 57.3297C300.047 56.3032 301.82 55.9314 303.512 56.3103L339.395 64.3437V64.3437C341.736 64.8678 342.416 67.8765 340.529 69.3569L327.665 79.4443C326.248 80.555 324.408 80.9711 322.651 80.5779L283.466 71.8049V71.8049C282.112 71.502 281.745 69.7472 282.862 68.9263L298.65 57.3297Z" fill="black"/>
<path d="M90.1219 84.6571C94.1841 94.9638 106.74 100.331 110.354 110.803C114.783 123.636 81.5858 142.75 65.4948 142.75C48.296 142.75 14.6103 126.052 22.0591 110.906C26.0043 102.885 33.4623 96.6895 36.0546 88.1341C40.324 74.0438 47.1931 62 62.9767 62C77.6128 62 85.078 71.86 90.1219 84.6571Z" fill="#5D96E8"/>
<path d="M60 90.8944C60 93.9005 57.5631 97.0631 54.5571 97.0631C51.551 97.0631 50 93.9005 50 90.8944C50 87.8883 51.551 84 54.5571 84C57.5631 84 60 87.8883 60 90.8944Z" fill="white"/>
<path d="M57.1705 91.6454C57.7188 95.4531 55.5654 97.1838 53.5853 97.1838C50 96.1838 50 94.4338 50 91.6454C50 89.7336 51.6052 88.1838 53.5853 88.1838C55.5654 88.1838 57.1705 89.7336 57.1705 91.6454Z" fill="black"/>
<path d="M82 90.8944C82 93.9005 79.5631 97.0631 76.5571 97.0631C73.551 97.0631 72 93.9005 72 90.8944C72 87.8883 73.551 84 76.5571 84C79.5631 84 82 87.8883 82 90.8944Z" fill="white"/>
<path d="M79.1705 91.6454C79.7188 95.4531 77.5654 97.1838 75.5853 97.1838C72 96.1838 72 94.4338 72 91.6454C72 89.7336 73.6052 88.1838 75.5853 88.1838C77.5654 88.1838 79.1705 89.7336 79.1705 91.6454Z" fill="black"/>
<path d="M196.698 79.2967C203.288 92.5165 224.265 102.961 219.088 116.795C214.566 128.876 188.266 142.875 174.495 142.875C158.999 142.875 130.12 129.32 130 115.558C129.897 103.639 142.472 94.9988 146.532 83.792C150.906 71.7152 157.892 62.125 171.977 62.125C184.439 62.125 191.702 69.2734 196.698 79.2967Z" fill="#C3D3D9"/>
<line x1="167.478" y1="103.188" x2="177.978" y2="103.188" stroke="black" stroke-width="0.875"/>
<path d="M148.082 122.375C148.082 116.093 153.175 111 159.457 111H191.707C197.989 111 203.082 116.093 203.082 122.375V135.625C203.082 141.907 197.989 147 191.707 147H159.457C153.175 147 148.082 141.907 148.082 135.625V122.375Z" fill="#C3D3D9"/>
<path d="M39 122.375C39 116.093 44.0928 111 50.375 111H82.625C88.9072 111 94 116.093 94 122.375V135.625C94 141.907 88.9072 147 82.625 147H50.375C44.0928 147 39 141.907 39 135.625V122.375Z" fill="#5D96E8"/>
<path d="M166.082 92.8944C166.082 95.9005 163.645 99.0631 160.639 99.0631C157.633 99.0631 156.082 95.9005 156.082 92.8944C156.082 89.8883 157.633 86 160.639 86C163.645 86 166.082 89.8883 166.082 92.8944Z" fill="white"/>
<path d="M163.253 93.6454C163.801 97.4531 161.647 99.1838 159.667 99.1838C156.082 98.1838 156.082 96.4338 156.082 93.6454C156.082 91.7336 157.687 90.1838 159.667 90.1838C161.647 90.1838 163.253 91.7336 163.253 93.6454Z" fill="black"/>
<path d="M188.082 92.8944C188.082 95.9005 185.645 99.0631 182.639 99.0631C179.633 99.0631 178.082 95.9005 178.082 92.8944C178.082 89.8883 179.633 86 182.639 86C185.645 86 188.082 89.8883 188.082 92.8944Z" fill="white"/>
<path d="M185.253 93.6454C185.801 97.4531 183.647 99.1838 181.667 99.1838C178.082 98.1838 178.082 96.4338 178.082 93.6454C178.082 91.7336 179.687 90.1838 181.667 90.1838C183.647 90.1838 185.253 91.7336 185.253 93.6454Z" fill="black"/>
<rect x="55.5" y="156" width="13" height="2" rx="1" transform="rotate(-90 55.5 156)" fill="black"/>
<rect x="55.5" y="156" width="13" height="2" rx="1" transform="rotate(-90 55.5 156)" fill="black"/>
<rect x="75" y="158" width="13" height="2" rx="1" transform="rotate(-90 75 158)" fill="black"/>
<rect x="75" y="158" width="13" height="2" rx="1" transform="rotate(-90 75 158)" fill="black"/>
<line x1="55.5" y1="144" x2="55.5" y2="156" stroke="black"/>
<line x1="55.5" y1="144" x2="55.5" y2="156" stroke="black"/>
<rect x="163.5" y="160" width="13" height="2" rx="1" transform="rotate(-90 163.5 160)" fill="black"/>
<rect x="163.5" y="160" width="13" height="2" rx="1" transform="rotate(-90 163.5 160)" fill="black"/>
<line x1="163.5" y1="148" x2="163.5" y2="160" stroke="black"/>
<line x1="163.5" y1="148" x2="163.5" y2="160" stroke="black"/>
<rect x="183.5" y="160" width="13" height="2" rx="1" transform="rotate(-90 183.5 160)" fill="black"/>
<rect x="183.5" y="160" width="13" height="2" rx="1" transform="rotate(-90 183.5 160)" fill="black"/>
<line x1="183.5" y1="148" x2="183.5" y2="160" stroke="black"/>
<line x1="183.5" y1="148" x2="183.5" y2="160" stroke="black"/>
<path fill-rule="evenodd" clip-rule="evenodd" d="M63.7607 61.3982C64.6495 59.7241 65.8117 57.9447 67.2045 56.1855C71.8541 50.3129 77.3125 46.8896 79.3963 48.5395C81.4802 50.1893 79.4003 56.2874 74.7507 62.16C70.439 67.606 65.4316 70.9455 63.065 70.0863C60.4553 69.8957 56.1935 66.7573 52.4548 62.035C47.8052 56.1624 45.7253 50.0643 47.8091 48.4145C49.893 46.7646 55.3514 50.1879 60.001 56.0605C61.5915 57.8023 62.85 59.6434 63.7607 61.3982Z" fill="#2A3438"/>
<path fill-rule="evenodd" clip-rule="evenodd" d="M173.761 61.3982C174.649 59.7241 175.812 57.9447 177.205 56.1855C181.854 50.3129 187.313 46.8896 189.396 48.5395C191.48 50.1893 189.4 56.2874 184.751 62.16C180.439 67.606 175.432 70.9455 173.065 70.0863C170.455 69.8957 166.193 66.7573 162.455 62.035C157.805 56.1624 155.725 50.0643 157.809 48.4145C159.893 46.7646 165.351 50.1879 170.001 56.0605C171.591 57.8023 172.85 59.6434 173.761 61.3982Z" fill="#2A3438"/>
<path d="M58.5 157C58.5 158.381 57.3807 159.5 56 159.5C54.6193 159.5 51 159.881 51 158.5C51 157.119 56.3125 156 57.1562 155C58.537 155 58.5 155.619 58.5 157Z" fill="black"/>
<path d="M78.5 157C78.5 158.381 77.3807 159.5 76 159.5C74.6193 159.5 71 159.881 71 158.5C71 157.119 76.3125 156 77.1562 155C78.537 155 78.5 155.619 78.5 157Z" fill="black"/>
<path d="M166.5 162C166.5 163.381 165.381 164.5 164 164.5C162.619 164.5 159 164.881 159 163.5C159 162.119 164.312 161 165.156 160C166.537 160 166.5 160.619 166.5 162Z" fill="black"/>
<path d="M187.5 161C187.5 162.381 186.381 163.5 185 163.5C183.619 163.5 180 163.881 180 162.5C180 161.119 185.312 160 186.156 159C187.537 159 187.5 159.619 187.5 161Z" fill="black"/>
<path d="M61 101C64.4164 103.827 66.7222 103.799 71.5 101" stroke="black" stroke-width="0.875"/>
<rect x="171.653" y="122.537" width="23" height="14" rx="7" fill="#F06C56"/>
<path d="M203.455 94C202.31 104.308 195.138 113.7 190.684 122.608" stroke="#F06C56" stroke-width="1.2" stroke-linecap="round"/>
<path d="M135 98.5977C138.148 100.66 140.106 102.248 142.379 105.239C145.889 109.857 149.919 115.184 154.81 118.408C157.206 119.987 158.204 122.858 160.77 124.141C164.82 126.166 168.592 129.76 173.315 129.76" stroke="#F06C56" stroke-width="1.2" stroke-linecap="round"/>
</svg>
