<svg width="24" height="24" viewBox="0 0 24 24" fill="none" xmlns="http://www.w3.org/2000/svg">
<rect width="24" height="24" fill="white"/>
<path d="M-1954 -1034C-1954 -1035.1 -1953.1 -1036 -1952 -1036H9941C9942.1 -1036 9943 -1035.1 9943 -1034V6531C9943 6532.1 9942.1 6533 9941 6533H-1952C-1953.1 6533 -1954 6532.1 -1954 6531V-1034Z" fill="#A5A2A2"/>
<path d="M-1952 -1035H9941V-1037H-1952V-1035ZM9942 -1034V6531H9944V-1034H9942ZM9941 6532H-1952V6534H9941V6532ZM-1953 6531V-1034H-1955V6531H-1953ZM-1952 6532C-1952.55 6532 -1953 6531.55 -1953 6531H-1955C-1955 6532.66 -1953.66 6534 -1952 6534V6532ZM9942 6531C9942 6531.55 9941.55 6532 9941 6532V6534C9942.66 6534 9944 6532.66 9944 6531H9942ZM9941 -1035C9941.55 -1035 9942 -1034.55 9942 -1034H9944C9944 -1035.66 9942.66 -1037 9941 -1037V-1035ZM-1952 -1037C-1953.66 -1037 -1955 -1035.66 -1955 -1034H-1953C-1953 -1034.55 -1952.55 -1035 -1952 -1035V-1037Z" fill="black" fill-opacity="0.1"/>
<rect width="393" height="845.5" transform="translate(-189 -101)" fill="white"/>
<path d="M10.8 19.2H13.2V16.8H10.8V19.2ZM12 0C5.376 0 0 5.376 0 12C0 18.624 5.376 24 12 24C18.624 24 24 18.624 24 12C24 5.376 18.624 0 12 0ZM12 21.6C6.708 21.6 2.4 17.292 2.4 12C2.4 6.708 6.708 2.4 12 2.4C17.292 2.4 21.6 6.708 21.6 12C21.6 17.292 17.292 21.6 12 21.6ZM12 4.8C9.348 4.8 7.2 6.948 7.2 9.6H9.6C9.6 8.28 10.68 7.2 12 7.2C13.32 7.2 14.4 8.28 14.4 9.6C14.4 12 10.8 11.7 10.8 15.6H13.2C13.2 12.9 16.8 12.6 16.8 9.6C16.8 6.948 14.652 4.8 12 4.8Z" fill="#D9D9D9"/>
</svg>
