<svg width="140" height="26" viewBox="0 0 140 26" fill="none" xmlns="http://www.w3.org/2000/svg">
<path d="M5.57172 8.08037C4.78135 9.3737 2.4894 14.9046 3.86297 16.1533C4.42569 16.6649 5.64436 15.0067 5.88557 14.741C7.2042 13.2886 8.15949 12.353 10.2272 12.1081C12.2575 11.8677 12.5053 12.5392 13.2262 14.2353C13.4035 14.6526 15.6956 19.8849 16.2426 19.5534C16.7558 19.2423 16.8848 18.539 17.1842 18.019C18.3554 15.9848 19.5144 13.9369 20.5145 11.8117C21.3747 9.98371 22.0597 8.05432 22.8335 6.19727" stroke="black" stroke-width="5.44812" stroke-linecap="round"/>
<path d="M32.5619 8.08057C31.6691 11.4535 31.6675 15.0637 30.9927 18.4376" stroke="black" stroke-width="5.44812" stroke-linecap="round"/>
<path d="M52.9624 6.8252C51.2338 6.91617 49.5199 7.10322 47.8013 7.31341C46.6517 7.45401 44.0059 7.4351 42.9889 8.35958C42.3978 8.89693 42.2513 10.2966 42.2392 11.0099C42.2021 13.1994 44.6474 13.3142 46.3018 13.7125C48.7978 14.3134 50.5776 15.0376 50.5039 17.9843C50.4656 19.5162 47.6714 21.4496 46.6854 22.5177" stroke="black" stroke-width="5.44812" stroke-linecap="round"/>
<path d="M63.3196 11.2193C65.6525 11.8026 69.335 13.7718 71.6889 12.405C73.1534 11.5547 68.9929 8.5855 68.0971 8.41212C63.8703 7.59402 60.7585 11.0696 60.6693 15.3343C60.5707 20.0501 65.9475 21.3331 69.5966 21.5764" stroke="black" stroke-width="5.44812" stroke-linecap="round"/>
<path d="M83.6103 6.1034C83.4142 7.37843 82.8334 8.6026 82.5642 9.8696C82.0216 12.423 82.5839 14.7641 83.8196 17.0533C84.9624 19.1705 87.9113 22.0477 90.6197 21.9703C97.1541 21.7836 96.2832 13.0344 94.7695 8.64907C93.9285 6.21269 92.8487 4.67816 90.1489 4.62133C87.8651 4.57325 85.5625 4.91007 83.2965 5.16185" stroke="black" stroke-width="5.44812" stroke-linecap="round"/>
<path d="M104.638 10.811C104.679 11.7017 104.012 19.7562 106.05 20.2091C108.142 20.674 109.866 16.8747 110.775 15.5711C112.252 13.4552 116.759 18.3432 117.889 19.5989C117.974 19.6929 118.055 19.7048 118.133 19.564C118.861 18.2536 119.308 16.6135 119.86 15.2398C120.3 14.1431 120.831 11.8372 121.9 11.1249" stroke="black" stroke-width="5.44812" stroke-linecap="round"/>
<path d="M136.965 3.59277C136.509 9.85126 135.396 16.1489 135.396 22.4238" stroke="black" stroke-width="5.44812" stroke-linecap="round"/>
</svg>
